<svg width="81" height="19" viewBox="0 0 81 19" fill="none" xmlns="http://www.w3.org/2000/svg">
<path d="M8.79545 0.545454H10.9091V13.0227C10.9091 14.1364 10.7045 15.0824 10.2955 15.8608C9.88636 16.6392 9.30966 17.2301 8.56534 17.6335C7.82102 18.0369 6.94318 18.2386 5.93182 18.2386C4.97727 18.2386 4.12784 18.0653 3.38352 17.7188C2.6392 17.3665 2.05398 16.8665 1.62784 16.2188C1.2017 15.571 0.988636 14.8011 0.988636 13.9091H3.06818C3.06818 14.4034 3.19034 14.8352 3.43466 15.2045C3.68466 15.5682 4.02557 15.8523 4.45739 16.0568C4.8892 16.2614 5.38068 16.3636 5.93182 16.3636C6.53977 16.3636 7.05682 16.2358 7.48295 15.9801C7.90909 15.7244 8.23295 15.3494 8.45455 14.8551C8.68182 14.3551 8.79545 13.7443 8.79545 13.0227V0.545454ZM20.1903 18.2727C19.0085 18.2727 17.9716 17.9915 17.0795 17.429C16.1932 16.8665 15.5 16.0795 15 15.0682C14.5057 14.0568 14.2585 12.875 14.2585 11.5227C14.2585 10.1591 14.5057 8.96875 15 7.9517C15.5 6.93466 16.1932 6.14489 17.0795 5.58239C17.9716 5.01989 19.0085 4.73864 20.1903 4.73864C21.3722 4.73864 22.4063 5.01989 23.2926 5.58239C24.1847 6.14489 24.8778 6.93466 25.3722 7.9517C25.8722 8.96875 26.1222 10.1591 26.1222 11.5227C26.1222 12.875 25.8722 14.0568 25.3722 15.0682C24.8778 16.0795 24.1847 16.8665 23.2926 17.429C22.4063 17.9915 21.3722 18.2727 20.1903 18.2727ZM20.1903 16.4659C21.0881 16.4659 21.8267 16.2358 22.4062 15.7756C22.9858 15.3153 23.4148 14.7102 23.6932 13.9602C23.9716 13.2102 24.1108 12.3977 24.1108 11.5227C24.1108 10.6477 23.9716 9.83239 23.6932 9.0767C23.4148 8.32102 22.9858 7.71023 22.4062 7.24432C21.8267 6.77841 21.0881 6.54545 20.1903 6.54545C19.2926 6.54545 18.554 6.77841 17.9744 7.24432C17.3949 7.71023 16.9659 8.32102 16.6875 9.0767C16.4091 9.83239 16.2699 10.6477 16.2699 11.5227C16.2699 12.3977 16.4091 13.2102 16.6875 13.9602C16.9659 14.7102 17.3949 15.3153 17.9744 15.7756C18.554 16.2358 19.2926 16.4659 20.1903 16.4659ZM29.4652 18V0.545454H31.4766V6.98864H31.647C31.7947 6.76136 31.9993 6.47159 32.2607 6.11932C32.5277 5.76136 32.9084 5.44318 33.4027 5.16477C33.9027 4.88068 34.5788 4.73864 35.4311 4.73864C36.5334 4.73864 37.505 5.0142 38.3459 5.56534C39.1868 6.11648 39.843 6.89773 40.3146 7.90909C40.7862 8.92045 41.022 10.1136 41.022 11.4886C41.022 12.875 40.7862 14.0767 40.3146 15.0938C39.843 16.1051 39.1896 16.8892 38.3544 17.446C37.5192 17.9972 36.5561 18.2727 35.4652 18.2727C34.6243 18.2727 33.951 18.1335 33.4453 17.8551C32.9396 17.571 32.5504 17.25 32.2777 16.892C32.005 16.5284 31.7947 16.2273 31.647 15.9886H31.4084V18H29.4652ZM31.4425 11.4545C31.4425 12.4432 31.5874 13.3153 31.8771 14.071C32.1669 14.821 32.5902 15.4091 33.147 15.8352C33.7038 16.2557 34.3857 16.4659 35.1925 16.4659C36.0334 16.4659 36.7351 16.2443 37.2976 15.8011C37.8658 15.3523 38.2919 14.75 38.576 13.9943C38.8658 13.233 39.0107 12.3864 39.0107 11.4545C39.0107 10.5341 38.8686 9.70455 38.5845 8.96591C38.3061 8.22159 37.8828 7.63352 37.3146 7.2017C36.7521 6.7642 36.0447 6.54545 35.1925 6.54545C34.3743 6.54545 33.6868 6.75284 33.13 7.16761C32.5732 7.5767 32.1527 8.15057 31.8686 8.8892C31.5845 9.62216 31.4425 10.4773 31.4425 11.4545ZM46.1101 0.545454V18H44.0987V0.545454H46.1101ZM49.794 18V4.90909H51.8054V18H49.794ZM50.8168 2.72727C50.4247 2.72727 50.0866 2.59375 49.8026 2.3267C49.5241 2.05966 49.3849 1.73864 49.3849 1.36364C49.3849 0.988636 49.5241 0.667614 49.8026 0.400568C50.0866 0.133523 50.4247 0 50.8168 0C51.2088 0 51.544 0.133523 51.8224 0.400568C52.1065 0.667614 52.2486 0.988636 52.2486 1.36364C52.2486 1.73864 52.1065 2.05966 51.8224 2.3267C51.544 2.59375 51.2088 2.72727 50.8168 2.72727ZM57.5007 10.125V18H55.4893V4.90909H57.4325V6.95455H57.603C57.9098 6.28977 58.3757 5.75568 59.0007 5.35227C59.6257 4.94318 60.4325 4.73864 61.4212 4.73864C62.3075 4.73864 63.0831 4.92045 63.7479 5.28409C64.4126 5.64205 64.9297 6.1875 65.299 6.92045C65.6683 7.64773 65.853 8.56818 65.853 9.68182V18H63.8416V9.81818C63.8416 8.78977 63.5746 7.98864 63.0405 7.41477C62.5064 6.83523 61.7734 6.54545 60.8416 6.54545C60.1996 6.54545 59.6257 6.68466 59.12 6.96307C58.62 7.24148 58.2251 7.64773 57.9354 8.18182C57.6456 8.71591 57.5007 9.36364 57.5007 10.125ZM71.4034 13.2273L71.3693 10.7386H71.7784L77.5057 4.90909H79.9943L73.892 11.0795H73.7216L71.4034 13.2273ZM69.5284 18V0.545454H71.5398V18H69.5284ZM77.8466 18L72.733 11.5227L74.1648 10.125L80.4034 18H77.8466Z" fill="#3333CC"/>
<path d="M8.79545 0.545454V-0.454546H7.79545V0.545454H8.79545ZM10.9091 0.545454H11.9091V-0.454546H10.9091V0.545454ZM10.2955 15.8608L11.1807 16.326L11.1807 16.326L10.2955 15.8608ZM8.56534 17.6335L9.04184 18.5127L9.04184 18.5127L8.56534 17.6335ZM3.38352 17.7188L2.95572 18.6226L2.9614 18.6253L3.38352 17.7188ZM1.62784 16.2188L0.792424 16.7684L0.792424 16.7684L1.62784 16.2188ZM0.988636 13.9091V12.9091H-0.0113636V13.9091H0.988636ZM3.06818 13.9091H4.06818V12.9091H3.06818V13.9091ZM3.43466 15.2045L2.60064 15.7563L2.60556 15.7637L2.61062 15.7711L3.43466 15.2045ZM4.45739 16.0568L4.88547 15.1531L4.88547 15.1531L4.45739 16.0568ZM7.48295 15.9801L6.96846 15.1226L6.96846 15.1226L7.48295 15.9801ZM8.45455 14.8551L7.54417 14.4413L7.54204 14.4461L8.45455 14.8551ZM8.79545 1.54545H10.9091V-0.454546H8.79545V1.54545ZM9.90909 0.545454V13.0227H11.9091V0.545454H9.90909ZM9.90909 13.0227C9.90909 14.0164 9.72651 14.7938 9.41026 15.3956L11.1807 16.326C11.6826 15.3709 11.9091 14.2563 11.9091 13.0227H9.90909ZM9.41026 15.3956C9.08959 16.0057 8.65191 16.4492 8.08884 16.7543L9.04184 18.5127C9.9674 18.0111 10.6831 17.2727 11.1807 16.326L9.41026 15.3956ZM8.08884 16.7543C7.51681 17.0644 6.80906 17.2386 5.93182 17.2386V19.2386C7.0773 19.2386 8.12524 19.0095 9.04184 18.5127L8.08884 16.7543ZM5.93182 17.2386C5.09953 17.2386 4.39793 17.088 3.80565 16.8122L2.9614 18.6253C3.85775 19.0427 4.85501 19.2386 5.93182 19.2386V17.2386ZM3.81131 16.8149C3.22206 16.536 2.78225 16.154 2.46326 15.6691L0.792424 16.7684C1.3257 17.579 2.05635 18.197 2.95573 18.6226L3.81131 16.8149ZM2.46326 15.6691C2.15996 15.2081 1.98864 14.636 1.98864 13.9091H-0.0113636C-0.0113636 14.9663 0.243451 15.9339 0.792424 16.7684L2.46326 15.6691ZM0.988636 14.9091H3.06818V12.9091H0.988636V14.9091ZM2.06818 13.9091C2.06818 14.576 2.23571 15.2046 2.60064 15.7563L4.26868 14.6528C4.14497 14.4658 4.06818 14.2308 4.06818 13.9091H2.06818ZM2.61062 15.7711C2.96876 16.292 3.45169 16.687 4.0293 16.9606L4.88547 15.1531C4.59945 15.0176 4.40056 14.8444 4.2587 14.638L2.61062 15.7711ZM4.0293 16.9606C4.61401 17.2375 5.2553 17.3636 5.93182 17.3636V15.3636C5.50607 15.3636 5.1644 15.2852 4.88547 15.1531L4.0293 16.9606ZM5.93182 17.3636C6.6806 17.3636 7.38456 17.2053 7.99745 16.8376L6.96846 15.1226C6.72908 15.2662 6.39894 15.3636 5.93182 15.3636V17.3636ZM7.99745 16.8376C8.61488 16.4671 9.06969 15.9275 9.36706 15.2642L7.54204 14.4461C7.39622 14.7713 7.2033 14.9817 6.96846 15.1226L7.99745 16.8376ZM9.36491 15.2689C9.66671 14.605 9.79545 13.8443 9.79545 13.0227H7.79545C7.79545 13.6443 7.69693 14.1053 7.54418 14.4413L9.36491 15.2689ZM9.79545 13.0227V0.545454H7.79545V13.0227H9.79545ZM17.0795 17.429L16.5437 18.2733L16.5462 18.2748L17.0795 17.429ZM15 15.0682L14.1016 15.5073L14.1036 15.5114L15 15.0682ZM15 7.9517L14.1026 7.51051L14.1006 7.51457L15 7.9517ZM17.0795 5.58239L16.5462 4.73651L16.5437 4.73806L17.0795 5.58239ZM23.2926 5.58239L22.7568 6.42672L22.7592 6.42826L23.2926 5.58239ZM25.3722 7.9517L24.4728 8.38884L24.4747 8.39289L25.3722 7.9517ZM25.3722 15.0682L24.4757 14.625L24.4737 14.6291L25.3722 15.0682ZM23.2926 17.429L22.7592 16.5831L22.7568 16.5846L23.2926 17.429ZM22.4062 15.7756L21.7844 14.9925L21.7844 14.9925L22.4062 15.7756ZM23.6932 13.9602L24.6307 14.3082L24.6307 14.3082L23.6932 13.9602ZM23.6932 9.0767L24.6315 8.731L24.6315 8.731L23.6932 9.0767ZM22.4062 7.24432L23.0328 6.46494L23.0328 6.46494L22.4062 7.24432ZM17.9744 7.24432L17.3479 6.46494L17.3479 6.46494L17.9744 7.24432ZM16.6875 9.0767L15.7492 8.731L15.7492 8.731L16.6875 9.0767ZM16.6875 13.9602L15.75 14.3082L15.75 14.3082L16.6875 13.9602ZM17.9744 15.7756L18.5963 14.9925L18.5963 14.9925L17.9744 15.7756ZM20.1903 17.2727C19.1738 17.2727 18.3265 17.0331 17.6129 16.5831L16.5462 18.2748C17.6166 18.9499 18.8432 19.2727 20.1903 19.2727V17.2727ZM17.6154 16.5846C16.8953 16.1277 16.3215 15.4849 15.8964 14.625L14.1036 15.5114C14.6785 16.6742 15.4911 17.6053 16.5437 18.2733L17.6154 16.5846ZM15.8984 14.6291C15.4831 13.7792 15.2585 12.7531 15.2585 11.5227H13.2585C13.2585 12.9969 13.5283 14.3344 14.1016 15.5073L15.8984 14.6291ZM15.2585 11.5227C15.2585 10.2798 15.4835 9.24448 15.8994 8.38884L14.1006 7.51457C13.5278 8.69302 13.2585 10.0384 13.2585 11.5227H15.2585ZM15.8974 8.39289C16.323 7.5273 16.8967 6.88282 17.6154 6.42672L16.5437 4.73806C15.4897 5.40696 14.677 6.34202 14.1026 7.51052L15.8974 8.39289ZM17.6129 6.42826C18.3265 5.97827 19.1738 5.73864 20.1903 5.73864V3.73864C18.8432 3.73864 17.6166 4.0615 16.5462 4.73651L17.6129 6.42826ZM20.1903 5.73864C21.207 5.73864 22.0502 5.9783 22.7568 6.42672L23.8284 4.73806C22.7623 4.06147 21.5374 3.73864 20.1903 3.73864V5.73864ZM22.7592 6.42826C23.4821 6.88407 24.0538 7.52688 24.4728 8.38884L26.2716 7.51457C25.7019 6.34244 24.8872 5.4057 23.826 4.73651L22.7592 6.42826ZM24.4747 8.39289C24.8949 9.24753 25.1222 10.2814 25.1222 11.5227H27.1222C27.1222 10.0368 26.8494 8.68997 26.2696 7.51052L24.4747 8.39289ZM25.1222 11.5227C25.1222 12.7515 24.8954 13.7762 24.4757 14.625L26.2686 15.5114C26.8489 14.3375 27.1222 12.9985 27.1222 11.5227H25.1222ZM24.4737 14.6291C24.0552 15.4853 23.4835 16.1264 22.7592 16.5831L23.826 18.2748C24.8858 17.6066 25.7005 16.6738 26.2706 15.5073L24.4737 14.6291ZM22.7568 16.5846C22.0502 17.0331 21.207 17.2727 20.1903 17.2727V19.2727C21.5374 19.2727 22.7623 18.9499 23.8284 18.2733L22.7568 16.5846ZM20.1903 17.4659C21.2642 17.4659 22.2364 17.1874 23.0281 16.5587L21.7844 14.9925C21.417 15.2842 20.9119 15.4659 20.1903 15.4659V17.4659ZM23.0281 16.5587C23.7622 15.9758 24.2941 15.215 24.6307 14.3082L22.7557 13.6122C22.5355 14.2055 22.2094 14.6549 21.7844 14.9925L23.0281 16.5587ZM24.6307 14.3082C24.9541 13.4369 25.1108 12.5054 25.1108 11.5227H23.1108C23.1108 12.2901 22.9891 12.9836 22.7557 13.6122L24.6307 14.3082ZM25.1108 11.5227C25.1108 10.54 24.9541 9.60658 24.6315 8.731L22.7548 9.42241C22.9891 10.0582 23.1108 10.7555 23.1108 11.5227H25.1108ZM24.6315 8.731C24.2958 7.81979 23.7654 7.05385 23.0328 6.46494L21.7797 8.02369C22.2062 8.3666 22.5337 8.82226 22.7548 9.42241L24.6315 8.731ZM23.0328 6.46494C22.2409 5.82835 21.2671 5.54545 20.1903 5.54545V7.54545C20.9091 7.54545 21.4125 7.72847 21.7797 8.02369L23.0328 6.46494ZM20.1903 5.54545C19.1136 5.54545 18.1397 5.82835 17.3479 6.46494L18.601 8.02369C18.9682 7.72847 19.4716 7.54545 20.1903 7.54545V5.54545ZM17.3479 6.46494C16.6153 7.05385 16.0849 7.81979 15.7492 8.731L17.6258 9.42241C17.847 8.82226 18.1744 8.3666 18.601 8.02369L17.3479 6.46494ZM15.7492 8.731C15.4266 9.60658 15.2699 10.54 15.2699 11.5227H17.2699C17.2699 10.7555 17.3916 10.0582 17.6258 9.42241L15.7492 8.731ZM15.2699 11.5227C15.2699 12.5054 15.4266 13.4369 15.75 14.3082L17.625 13.6122C17.3916 12.9836 17.2699 12.2901 17.2699 11.5227H15.2699ZM15.75 14.3082C16.0866 15.215 16.6185 15.9758 17.3526 16.5587L18.5963 14.9925C18.1713 14.6549 17.8452 14.2055 17.625 13.6122L15.75 14.3082ZM17.3525 16.5587C18.1443 17.1874 19.1164 17.4659 20.1903 17.4659V15.4659C19.4688 15.4659 18.9637 15.2842 18.5963 14.9925L17.3525 16.5587ZM29.4652 18H28.4652V19H29.4652V18ZM29.4652 0.545454V-0.454546H28.4652V0.545454H29.4652ZM31.4766 0.545454H32.4766V-0.454546H31.4766V0.545454ZM31.4766 6.98864H30.4766V7.98864H31.4766V6.98864ZM31.647 6.98864V7.98864H32.1897L32.4855 7.53362L31.647 6.98864ZM32.2607 6.11932L31.4591 5.52135L31.4576 5.52347L32.2607 6.11932ZM33.4027 5.16477L33.8934 6.03609L33.8967 6.03423L33.4027 5.16477ZM38.3459 5.56534L38.894 4.72897L38.894 4.72897L38.3459 5.56534ZM40.3146 15.0938L41.2209 15.5164L41.2218 15.5144L40.3146 15.0938ZM38.3544 17.446L38.9052 18.2807L38.9091 18.2781L38.3544 17.446ZM33.4453 17.8551L32.9555 18.727L32.963 18.7311L33.4453 17.8551ZM32.2777 16.892L31.4777 17.4921L31.4823 17.4981L32.2777 16.892ZM31.647 15.9886L32.4973 15.4623L32.2041 14.9886H31.647V15.9886ZM31.4084 15.9886V14.9886H30.4084V15.9886H31.4084ZM31.4084 18V19H32.4084V18H31.4084ZM31.8771 14.071L30.9434 14.4291L30.9443 14.4314L31.8771 14.071ZM33.147 15.8352L32.5393 16.6294L32.5444 16.6333L33.147 15.8352ZM37.2976 15.8011L37.9165 16.5866L37.9175 16.5858L37.2976 15.8011ZM38.576 13.9943L37.6414 13.6386L37.64 13.6424L38.576 13.9943ZM38.5845 8.96591L37.6479 9.31626L37.6512 9.32489L38.5845 8.96591ZM37.3146 7.2017L36.7007 7.99111L36.7095 7.99787L37.3146 7.2017ZM33.13 7.16761L33.7221 7.97351L33.7273 7.96957L33.13 7.16761ZM31.8686 8.8892L32.801 9.2506L32.802 9.24818L31.8686 8.8892ZM30.4652 18V0.545454H28.4652V18H30.4652ZM29.4652 1.54545H31.4766V-0.454546H29.4652V1.54545ZM30.4766 0.545454V6.98864H32.4766V0.545454H30.4766ZM31.4766 7.98864H31.647V5.98864H31.4766V7.98864ZM32.4855 7.53362C32.6172 7.33088 32.8082 7.05962 33.0638 6.71516L31.4576 5.52347C31.1904 5.88357 30.9722 6.19185 30.8086 6.44365L32.4855 7.53362ZM33.0622 6.71728C33.2265 6.49699 33.489 6.26389 33.8934 6.03608L32.912 4.29346C32.3278 4.62248 31.8289 5.02574 31.4591 5.52135L33.0622 6.71728ZM33.8967 6.03423C34.1906 5.86723 34.6745 5.73864 35.4311 5.73864V3.73864C34.4832 3.73864 33.6148 3.89414 32.9087 4.29532L33.8967 6.03423ZM35.4311 5.73864C36.3581 5.73864 37.1353 5.96756 37.7977 6.40171L38.894 4.72897C37.8747 4.06085 36.7086 3.73864 35.4311 3.73864V5.73864ZM37.7977 6.40171C38.4664 6.83995 39.0064 7.46978 39.4083 8.3317L41.2209 7.48648C40.6797 6.32568 39.9072 5.39301 38.894 4.72897L37.7977 6.40171ZM39.4083 8.3317C39.8056 9.18367 40.022 10.2265 40.022 11.4886H42.022C42.022 10.0007 41.7669 8.65724 41.2209 7.48648L39.4083 8.3317ZM40.022 11.4886C40.022 12.7632 39.8052 13.8152 39.4074 14.6731L41.2218 15.5144C41.7673 14.3382 42.022 12.9868 42.022 11.4886H40.022ZM39.4083 14.6711C39.0053 15.5355 38.4658 16.1699 37.7997 16.614L38.9091 18.2781C39.9135 17.6085 40.6808 16.6748 41.2209 15.5164L39.4083 14.6711ZM37.8036 16.6114C37.1466 17.0449 36.3787 17.2727 35.4652 17.2727V19.2727C36.7335 19.2727 37.8918 18.9494 38.9052 18.2807L37.8036 16.6114ZM35.4652 17.2727C34.7211 17.2727 34.2333 17.1474 33.9276 16.9791L32.963 18.7311C33.6687 19.1196 34.5275 19.2727 35.4652 19.2727V17.2727ZM33.9351 16.9833C33.5154 16.7475 33.243 16.509 33.0731 16.286L31.4823 17.4981C31.8578 17.991 32.3638 18.3945 32.9555 18.727L33.9351 16.9833ZM33.0777 16.292C32.8134 15.9396 32.6228 15.6651 32.4973 15.4623L30.7968 16.515C30.9667 16.7895 31.1966 17.1172 31.4777 17.492L33.0777 16.292ZM31.647 14.9886H31.4084V16.9886H31.647V14.9886ZM30.4084 15.9886V18H32.4084V15.9886H30.4084ZM31.4084 17H29.4652V19H31.4084V17ZM30.4425 11.4545C30.4425 12.5393 30.6013 13.5369 30.9434 14.4291L32.8108 13.713C32.5734 13.0938 32.4425 12.3471 32.4425 11.4545H30.4425ZM30.9443 14.4314C31.2905 15.3275 31.8158 16.0757 32.5393 16.6294L33.7548 15.0411C33.3646 14.7425 33.0433 14.3146 32.8099 13.7106L30.9443 14.4314ZM32.5444 16.6333C33.3011 17.2046 34.2036 17.4659 35.1925 17.4659V15.4659C34.5677 15.4659 34.1066 15.3067 33.7496 15.0372L32.5444 16.6333ZM35.1925 17.4659C36.2171 17.4659 37.148 17.192 37.9165 16.5866L36.6787 15.0156C36.3221 15.2966 35.8496 15.4659 35.1925 15.4659V17.4659ZM37.9175 16.5858C38.6444 16.0115 39.1715 15.2521 39.512 14.3462L37.64 13.6424C37.4123 14.2479 37.0871 14.693 36.6777 15.0165L37.9175 16.5858ZM39.5106 14.35C39.8494 13.4599 40.0107 12.4906 40.0107 11.4545H38.0107C38.0107 12.2821 37.8822 13.006 37.6414 13.6386L39.5106 14.35ZM40.0107 11.4545C40.0107 10.4311 39.8526 9.47717 39.5179 8.60693L37.6512 9.32489C37.8846 9.93192 38.0107 10.6371 38.0107 11.4545H40.0107ZM39.5211 8.61557C39.1843 7.71505 38.655 6.96436 37.9197 6.40554L36.7095 7.99787C37.1106 8.30268 37.4279 8.72814 37.6479 9.31625L39.5211 8.61557ZM37.9286 6.41235C37.158 5.81302 36.2221 5.54545 35.1925 5.54545V7.54545C35.8674 7.54545 36.3463 7.71539 36.7007 7.99106L37.9286 6.41235ZM35.1925 5.54545C34.1987 5.54545 33.2914 5.80045 32.5326 6.36565L33.7273 7.96957C34.0822 7.70523 34.5499 7.54545 35.1925 7.54545V5.54545ZM32.5379 6.36173C31.8054 6.89986 31.2778 7.63966 30.9353 8.53022L32.802 9.24818C33.0276 8.66148 33.3409 8.25355 33.722 7.9735L32.5379 6.36173ZM30.9362 8.5278C30.598 9.40026 30.4425 10.3827 30.4425 11.4545H32.4425C32.4425 10.5719 32.571 9.84405 32.801 9.2506L30.9362 8.5278ZM46.1101 0.545454H47.1101V-0.454546H46.1101V0.545454ZM46.1101 18V19H47.1101V18H46.1101ZM44.0987 18H43.0987V19H44.0987V18ZM44.0987 0.545454V-0.454546H43.0987V0.545454H44.0987ZM45.1101 0.545454V18H47.1101V0.545454H45.1101ZM46.1101 17H44.0987V19H46.1101V17ZM45.0987 18V0.545454H43.0987V18H45.0987ZM44.0987 1.54545H46.1101V-0.454546H44.0987V1.54545ZM49.794 18H48.794V19H49.794V18ZM49.794 4.90909V3.90909H48.794V4.90909H49.794ZM51.8054 4.90909H52.8054V3.90909H51.8054V4.90909ZM51.8054 18V19H52.8054V18H51.8054ZM49.8026 2.3267L49.1103 3.04842L49.1176 3.05533L49.8026 2.3267ZM49.8026 0.400568L49.1176 -0.328098L49.1103 -0.321113L49.8026 0.400568ZM51.8224 0.400568L51.1302 1.12229L51.1375 1.12919L51.8224 0.400568ZM51.8224 2.3267L51.1375 1.59804L51.1302 1.60502L51.8224 2.3267ZM50.794 18V4.90909H48.794V18H50.794ZM49.794 5.90909H51.8054V3.90909H49.794V5.90909ZM50.8054 4.90909V18H52.8054V4.90909H50.8054ZM51.8054 17H49.794V19H51.8054V17ZM50.8168 1.72727C50.6777 1.72727 50.585 1.68973 50.4875 1.59808L49.1176 3.05533C49.5883 3.49777 50.1718 3.72727 50.8168 3.72727V1.72727ZM50.4948 1.60502C50.4066 1.52046 50.3849 1.4575 50.3849 1.36364H48.3849C48.3849 2.01977 48.6417 2.59885 49.1103 3.04839L50.4948 1.60502ZM50.3849 1.36364C50.3849 1.26977 50.4066 1.20681 50.4948 1.12225L49.1103 -0.321113C48.6417 0.128418 48.3849 0.707499 48.3849 1.36364H50.3849ZM50.4875 1.1292C50.585 1.03754 50.6777 1 50.8168 1V-1C50.1718 -1 49.5883 -0.770495 49.1176 -0.328061L50.4875 1.1292ZM50.8168 1C50.9555 1 51.0414 1.03701 51.1302 1.12225L52.5147 -0.321114C52.0467 -0.769967 51.4621 -1 50.8168 -1V1ZM51.1375 1.12919C51.2296 1.2157 51.2486 1.2767 51.2486 1.36364H53.2486C53.2486 0.700573 52.9835 0.119523 52.5074 -0.32806L51.1375 1.12919ZM51.2486 1.36364C51.2486 1.45057 51.2296 1.51157 51.1375 1.59808L52.5074 3.05533C52.9835 2.60775 53.2486 2.0267 53.2486 1.36364H51.2486ZM51.1302 1.60502C51.0414 1.69026 50.9555 1.72727 50.8168 1.72727V3.72727C51.4621 3.72727 52.0467 3.49724 52.5147 3.04838L51.1302 1.60502ZM57.5007 18V19H58.5007V18H57.5007ZM55.4893 18H54.4893V19H55.4893V18ZM55.4893 4.90909V3.90909H54.4893V4.90909H55.4893ZM57.4325 4.90909H58.4325V3.90909H57.4325V4.90909ZM57.4325 6.95455H56.4325V7.95455H57.4325V6.95455ZM57.603 6.95455V7.95455H58.2428L58.5109 7.3736L57.603 6.95455ZM59.0007 5.35227L59.543 6.19247L59.5484 6.18897L59.0007 5.35227ZM63.7479 5.28409L63.268 6.16143L63.2738 6.16456L63.7479 5.28409ZM65.299 6.92045L64.406 7.37044L64.4074 7.37323L65.299 6.92045ZM65.853 18V19H66.853V18H65.853ZM63.8416 18H62.8416V19H63.8416V18ZM63.0405 7.41477L62.3051 8.09246L62.3085 8.09606L63.0405 7.41477ZM59.12 6.96307L58.6377 6.08705L58.6335 6.08938L59.12 6.96307ZM57.9354 8.18182L57.0564 7.70493L57.0564 7.70493L57.9354 8.18182ZM56.5007 10.125V18H58.5007V10.125H56.5007ZM57.5007 17H55.4893V19H57.5007V17ZM56.4893 18V4.90909H54.4893V18H56.4893ZM55.4893 5.90909H57.4325V3.90909H55.4893V5.90909ZM56.4325 4.90909V6.95455H58.4325V4.90909H56.4325ZM57.4325 7.95455H57.603V5.95455H57.4325V7.95455ZM58.5109 7.3736C58.7369 6.88394 59.0747 6.49475 59.543 6.19246L58.4584 4.51209C57.6768 5.01661 57.0827 5.69561 56.695 6.53549L58.5109 7.3736ZM59.5484 6.18897C59.9657 5.91584 60.5654 5.73864 61.4212 5.73864V3.73864C60.2997 3.73864 59.2858 3.97052 58.4531 4.51557L59.5484 6.18897ZM61.4212 5.73864C62.1684 5.73864 62.7735 5.89096 63.268 6.16141L64.2278 4.40677C63.3927 3.94995 62.4467 3.73864 61.4212 3.73864V5.73864ZM63.2738 6.16456C63.7423 6.41682 64.1204 6.80378 64.406 7.37043L66.192 6.47047C65.7389 5.57122 65.083 4.86727 64.222 4.40362L63.2738 6.16456ZM64.4074 7.37323C64.6843 7.91854 64.853 8.67098 64.853 9.68182H66.853C66.853 8.46539 66.6524 7.37692 66.1906 6.46768L64.4074 7.37323ZM64.853 9.68182V18H66.853V9.68182H64.853ZM65.853 17H63.8416V19H65.853V17ZM64.8416 18V9.81818H62.8416V18H64.8416ZM64.8416 9.81818C64.8416 8.618 64.5271 7.54423 63.7725 6.73349L62.3085 8.09606C62.6221 8.43304 62.8416 8.96155 62.8416 9.81818H64.8416ZM63.7758 6.73709C63.0178 5.91456 61.9973 5.54545 60.8416 5.54545V7.54545C61.5496 7.54545 61.995 7.7559 62.3051 8.09245L63.7758 6.73709ZM60.8416 5.54545C60.0502 5.54545 59.3072 5.71848 58.6377 6.08706L59.6023 7.83908C59.9442 7.65083 60.3489 7.54545 60.8416 7.54545V5.54545ZM58.6335 6.08938C57.9573 6.46592 57.4308 7.01479 57.0564 7.70493L58.8143 8.6587C59.0194 8.28066 59.2828 8.01703 59.6065 7.83676L58.6335 6.08938ZM57.0564 7.70493C56.6696 8.41794 56.5007 9.23846 56.5007 10.125H58.5007C58.5007 9.48881 58.6216 9.01388 58.8143 8.6587L57.0564 7.70493ZM71.4034 13.2273L70.4035 13.241L70.4343 15.4883L72.083 13.9608L71.4034 13.2273ZM71.3693 10.7386V9.73864H70.3555L70.3694 10.7523L71.3693 10.7386ZM71.7784 10.7386V11.7386H72.1978L72.4917 11.4395L71.7784 10.7386ZM77.5057 4.90909V3.90909H77.0863L76.7923 4.20827L77.5057 4.90909ZM79.9943 4.90909L80.7053 5.61226L82.3897 3.90909H79.9943V4.90909ZM73.892 11.0795V12.0795H74.3095L74.6031 11.7827L73.892 11.0795ZM73.7216 11.0795V10.0795H73.3296L73.042 10.346L73.7216 11.0795ZM69.5284 18H68.5284V19H69.5284V18ZM69.5284 0.545454V-0.454546H68.5284V0.545454H69.5284ZM71.5398 0.545454H72.5398V-0.454546H71.5398V0.545454ZM71.5398 18V19H72.5398V18H71.5398ZM77.8466 18L77.0617 18.6196L77.362 19H77.8466V18ZM72.733 11.5227L72.0344 10.8072L71.3903 11.4359L71.9481 12.1424L72.733 11.5227ZM74.1648 10.125L74.9486 9.50404L74.2599 8.63467L73.4662 9.40943L74.1648 10.125ZM80.4034 18V19H82.4714L81.1872 17.379L80.4034 18ZM72.4033 13.2136L72.3692 10.7249L70.3694 10.7523L70.4035 13.241L72.4033 13.2136ZM71.3693 11.7386H71.7784V9.73864H71.3693V11.7386ZM72.4917 11.4395L78.219 5.60991L76.7923 4.20827L71.0651 10.0378L72.4917 11.4395ZM77.5057 5.90909H79.9943V3.90909H77.5057V5.90909ZM79.2833 4.20592L73.181 10.3764L74.6031 11.7827L80.7053 5.61226L79.2833 4.20592ZM73.892 10.0795H73.7216V12.0795H73.892V10.0795ZM73.042 10.346L70.7238 12.4937L72.083 13.9608L74.4012 11.8131L73.042 10.346ZM70.5284 18V0.545454H68.5284V18H70.5284ZM69.5284 1.54545H71.5398V-0.454546H69.5284V1.54545ZM70.5398 0.545454V18H72.5398V0.545454H70.5398ZM71.5398 17H69.5284V19H71.5398V17ZM78.6315 17.3804L73.5178 10.9031L71.9481 12.1424L77.0617 18.6196L78.6315 17.3804ZM73.4315 12.2383L74.8633 10.8406L73.4662 9.40943L72.0344 10.8072L73.4315 12.2383ZM73.3809 10.746L79.6196 18.621L81.1872 17.379L74.9486 9.50404L73.3809 10.746ZM80.4034 17H77.8466V19H80.4034V17Z" fill="#3333CC"/>
</svg>
